# xmcd
#
# Track frame offsets:
#	150
#	12992
#	27920
#	42659
#	59421
#	73102
#	83799
#	98132
#	111263
#	124058
#	133893
#	152305
#	166264
#	182751
#	199821
#
# Disc length: 2871 seconds
#
# Revision: 0
# Processed by: cddbd v1.5.2PL0 Copyright (c) Steve Scherf et al.
# Submitted via: audiograbber 1.83.01
#
DISCID=ce0b350f
DTITLE=Various Artist - CB-E9-03
DYEAR=2008
DGENRE=Karaoke
TTITLE0=Statler Brothers, The - Class Of '57, The
TTITLE1=Bill Anderson and Jan Howard - Dis-Satisfied
TTITLE2=Tammy Wynette - Woman To Woman
TTITLE3=Ronnie Milsap - Only One Love In My Life
TTITLE4=T.G. Sheppard - Devil In The Bottle
TTITLE5=Barbara Mandrell - Satisfied
TTITLE6=Ronnie Milsap - I'd Be A Legend In My Time
TTITLE7=Merle Haggard - Kentucky Gambler
TTITLE8=Billie Jo Spears - Misty Blue
TTITLE9=Tom T. Hall - Fox On The Run
TTITLE10=Gene Watson - Paper Rosie
TTITLE11=Crystal Gayle - I'll Do It All Over Again
TTITLE12=Conway Twitty - Play Guitar Play
TTITLE13=Statler Brothers, The - How To Be A Country Star
TTITLE14=Dolly Parton - It's All Wrong, But It's All Right
EXTD=
EXTT0=
EXTT1=
EXTT2=
EXTT3=
EXTT4=
EXTT5=
EXTT6=
EXTT7=
EXTT8=
EXTT9=
EXTT10=
EXTT11=
EXTT12=
EXTT13=
EXTT14=
PLAYORDER=
